<?xml version="1.0" standalone="no"?>
<!DOCTYPE svg PUBLIC "-//W3C//DTD SVG 20010904//EN"
 "http://www.w3.org/TR/2001/REC-SVG-20010904/DTD/svg10.dtd">
<svg version="1.0" xmlns="http://www.w3.org/2000/svg"
 width="700.000000pt" height="700.000000pt" viewBox="0 0 700.000000 700.000000"
 preserveAspectRatio="xMidYMid meet">
<metadata>
Created by potrace 1.11, written by Peter Selinger 2001-2013
</metadata>
<g transform="translate(0.000000,700.000000) scale(0.100000,-0.100000)"
fill="#000000" stroke="none">
<path d="M3329 6996 c-2 -2 -37 -7 -77 -10 -40 -4 -78 -9 -85 -11 -7 -2 -30
-6 -52 -9 -224 -30 -537 -148 -775 -292 -202 -122 -446 -336 -584 -511 -230
-294 -384 -632 -451 -990 -26 -140 -27 -164 -32 -518 -3 -192 -6 -351 -7 -352
-2 -2 -106 -4 -232 -4 l-230 -2 0 -2148 0 -2149 2693 0 2692 0 0 2149 0 2150
-77 0 c-42 0 -147 0 -233 0 l-156 1 0 263 c0 233 -8 434 -18 487 -2 10 -7 40
-11 67 -55 381 -242 790 -499 1093 -38 45 -208 215 -260 260 -231 202 -554
371 -865 454 -108 28 -120 31 -250 52 -81 13 -481 29 -491 20z m381 -649 c14
-3 45 -8 70 -11 149 -23 355 -97 497 -178 340 -195 589 -487 718 -843 29 -82
63 -200 70 -250 13 -83 18 -127 22 -170 6 -79 7 -584 1 -590 -6 -7 -3154 -8
-3165 -2 -9 6 -8 521 1 607 10 99 18 146 51 287 13 55 71 205 107 278 37 72
114 203 128 215 3 3 25 32 50 65 24 33 86 101 136 150 238 235 547 388 885
439 78 12 368 14 429 3z m-24 -3092 c91 -253 186 -516 211 -585 24 -69 47
-132 50 -140 4 -8 7 -17 8 -20 1 -3 4 -12 8 -20 3 -8 35 -98 72 -200 36 -102
72 -201 80 -220 8 -19 25 -66 38 -105 14 -38 41 -113 60 -165 19 -52 55 -151
80 -220 25 -69 73 -201 107 -295 34 -93 63 -176 64 -184 1 -12 -52 -15 -344
-15 l-345 -1 -3 -278 -2 -277 -275 0 -275 0 1 232 c0 128 0 254 -1 279 l0 45
-341 0 c-187 -1 -345 1 -349 4 -5 3 18 77 50 165 54 148 376 1036 404 1115 7
19 52 143 100 275 48 132 135 371 192 530 58 160 123 340 146 400 22 61 47
130 56 154 l16 44 13 -29 c7 -16 87 -236 179 -489z"/>
</g>
</svg>
